<?xml version="1.0" standalone="no"?>
<!DOCTYPE svg PUBLIC "-//W3C//DTD SVG 20010904//EN"
 "http://www.w3.org/TR/2001/REC-SVG-20010904/DTD/svg10.dtd">
<svg version="1.0" xmlns="http://www.w3.org/2000/svg"
 width="800.000000pt" height="800.000000pt" viewBox="0 0 800.000000 800.000000"
 preserveAspectRatio="xMidYMid meet">
<metadata>
Created by potrace 1.11, written by Peter Selinger 2001-2013
</metadata>
<g transform="translate(0.000000,800.000000) scale(0.100000,-0.100000)"
fill="#000000" stroke="none">
<path d="M5627 7107 c-4 -11 -52 -17 -52 -7 0 2 -12 3 -27 4 -23 2 -25 0 -15
-13 9 -12 4 -11 -17 3 -16 10 -26 14 -22 8 3 -5 -1 -13 -10 -16 -8 -3 -12 -2
-9 4 8 13 -1 13 -27 -1 -15 -8 -19 -8 -14 0 4 6 2 11 -3 11 -6 0 -11 -5 -11
-12 0 -6 -3 -8 -7 -5 -3 4 -13 1 -21 -6 -11 -8 -14 -8 -9 0 4 6 2 15 -5 19 -7
4 -10 4 -6 -1 11 -12 -25 -34 -48 -31 -10 2 -22 -2 -26 -8 -5 -7 -8 -7 -8 3 0
11 -3 11 -17 0 -15 -12 -16 -12 -8 1 8 13 7 13 -8 1 -11 -8 -17 -9 -17 -3 0 7
-7 9 -17 5 -11 -4 -13 -8 -5 -11 7 -2 9 -8 6 -14 -4 -7 -15 -1 -26 13 -11 13
-17 19 -15 14 3 -6 -3 -11 -13 -11 -15 0 -17 3 -7 15 7 8 -3 5 -20 -8 -19 -13
-38 -19 -45 -15 -8 5 -7 0 2 -11 14 -17 14 -18 -5 -8 -15 9 -22 8 -33 -5 -9
-12 -11 -12 -6 -2 7 13 5 13 -9 1 -9 -7 -17 -10 -17 -5 0 4 -5 3 -12 -4 -7 -7
-17 -12 -22 -12 -6 0 -4 4 4 10 8 5 11 12 7 16 -4 4 -13 2 -19 -4 -7 -7 -20
-12 -31 -12 -10 0 -16 -4 -13 -8 2 -4 1 -14 -5 -22 -6 -10 -9 -11 -9 -2 0 6
-5 12 -11 12 -5 0 -7 -5 -3 -12 4 -7 3 -8 -5 -4 -6 4 -19 2 -28 -6 -14 -11
-16 -11 -8 2 8 13 7 13 -9 0 -20 -15 -49 -23 -41 -10 3 4 -4 10 -15 13 -11 3
-18 1 -15 -3 9 -15 -15 -22 -31 -9 -19 16 -58 23 -49 9 4 -7 -2 -7 -18 -1 -16
6 -28 6 -36 -2 -8 -8 -11 -8 -11 2 0 10 -7 9 -27 -4 -25 -17 -26 -17 -19 1 7
17 6 17 -14 -1 -18 -16 -25 -14 -21 8 1 5 -3 6 -9 2 -5 -3 -10 0 -10 7 0 9 -3
9 -10 -2 -6 -10 -10 -11 -10 -2 0 6 -7 12 -16 12 -9 0 -12 -5 -8 -12 5 -8 0
-7 -11 2 -11 9 -16 10 -11 3 4 -7 2 -13 -3 -13 -6 0 -11 4 -11 9 0 13 -60 20
-60 7 0 -6 -7 -2 -15 8 -8 11 -15 15 -15 9 0 -13 -18 -12 -39 1 -9 6 -12 5 -7
-2 4 -7 -1 -10 -14 -9 -11 1 -20 5 -20 10 0 5 -8 3 -17 -4 -15 -12 -16 -12
-10 5 6 15 5 17 -6 8 -8 -7 -29 -9 -50 -5 -28 4 -37 2 -37 -8 0 -12 -2 -12 -9
0 -5 8 -23 15 -39 15 -17 1 -28 -2 -26 -6 2 -4 0 -9 -6 -13 -5 -3 -10 -1 -10
4 0 6 -3 10 -7 10 -23 -4 -43 2 -38 10 3 6 -3 9 -14 8 -11 0 -17 -5 -15 -9 3
-4 -4 -8 -15 -8 -12 0 -21 -6 -21 -12 0 -10 -3 -9 -9 1 -7 11 -9 11 -14 0 -5
-12 -6 -12 -6 0 -1 11 -4 11 -18 0 -9 -8 -14 -9 -10 -3 4 7 0 14 -8 18 -8 3
-14 2 -14 -2 3 -21 -3 -24 -17 -6 -8 10 -13 12 -9 4 4 -9 1 -8 -8 3 -11 13
-17 15 -22 7 -6 -9 -10 -9 -16 1 -6 10 -9 7 -9 -11 0 -18 -3 -21 -9 -11 -5 8
-16 11 -25 8 -9 -4 -16 -2 -16 3 0 9 -32 6 -49 -5 -5 -3 -13 0 -16 5 -5 7 -12
5 -22 -7 -14 -17 -14 -17 -9 1 6 16 4 17 -9 6 -8 -7 -15 -9 -15 -5 0 4 -7 2
-15 -5 -12 -10 -20 -9 -40 4 -14 10 -25 12 -25 6 0 -6 -4 -8 -10 -5 -5 3 -10
1 -10 -4 0 -6 -5 -11 -11 -11 -5 0 -7 5 -3 11 4 7 -1 7 -16 -1 -18 -10 -24 -9
-32 1 -7 10 -8 8 -5 -8 6 -27 1 -29 -21 -7 -11 11 -17 13 -20 5 -2 -6 -9 -8
-15 -4 -7 4 -8 0 -3 -13 4 -10 4 -15 0 -11 -4 4 -14 1 -22 -6 -11 -8 -14 -8
-9 0 5 8 -3 10 -25 9 -47 -4 -48 -5 -48 -20 0 -19 -25 -27 -40 -13 -10 9 -12
8 -7 -5 4 -13 2 -15 -10 -11 -12 5 -14 3 -8 -8 7 -12 6 -12 -7 -1 -13 10 -18
10 -24 1 -5 -8 -3 -10 7 -4 12 7 12 5 1 -6 -11 -12 -14 -12 -21 0 -7 11 -9 11
-14 0 -4 -11 -6 -11 -6 0 -1 11 -5 10 -17 -5 -8 -10 -12 -12 -8 -4 7 13 6 13
-9 1 -10 -8 -15 -16 -13 -19 6 -5 -19 -32 -29 -32 -3 0 -3 5 0 10 3 6 1 10 -4
10 -6 0 -11 -7 -11 -15 0 -8 -4 -16 -10 -16 -5 -1 -14 -3 -20 -4 -5 -1 -16 -3
-24 -4 -18 -1 -28 -28 -14 -37 7 -5 8 -2 3 6 -5 9 -4 11 4 6 9 -6 9 -11 0 -22
-6 -7 -9 -21 -5 -29 3 -9 2 -13 -4 -10 -5 3 -14 -4 -20 -15 -6 -11 -15 -20
-21 -20 -6 0 -7 6 -3 13 5 8 4 9 -4 2 -6 -6 -13 -20 -15 -32 -2 -13 -7 -26
-12 -30 -4 -5 -5 -2 -1 4 5 9 2 11 -8 7 -8 -3 -12 -12 -9 -20 3 -8 0 -14 -7
-14 -6 0 -8 -5 -5 -10 4 -7 -3 -9 -19 -6 -29 5 -46 -12 -25 -25 11 -7 11 -9 1
-9 -8 0 -10 -5 -6 -12 6 -10 5 -10 -7 -2 -11 9 -17 9 -27 -2 -10 -11 -10 -14
0 -14 10 0 10 -2 0 -9 -8 -4 -14 -12 -15 -17 -1 -5 -5 -8 -9 -7 -4 2 -5 -4 -2
-12 5 -11 2 -13 -12 -8 -13 5 -15 3 -9 -7 6 -10 4 -12 -8 -7 -10 4 -17 1 -17
-6 0 -8 -4 -6 -10 3 -7 11 -10 11 -10 2 0 -7 -5 -10 -12 -6 -7 4 -8 3 -4 -5 4
-6 0 -14 -11 -18 -29 -11 -57 -54 -57 -85 1 -25 -1 -27 -24 -21 -21 5 -24 3
-18 -12 6 -16 4 -16 -11 -4 -10 7 -15 10 -11 5 4 -5 0 -15 -8 -23 -8 -8 -12
-19 -8 -24 3 -5 2 -9 -3 -8 -28 5 -32 -2 -34 -53 0 -19 -29 -26 -29 -7 0 5 -5
7 -10 4 -6 -4 -8 -11 -5 -16 3 -5 -2 -6 -11 -2 -11 4 -15 3 -10 -5 3 -6 -3
-17 -14 -25 -12 -8 -22 -24 -23 -36 -1 -12 -6 -20 -13 -17 -10 4 -32 -36 -33
-59 0 -3 -12 -16 -27 -30 -16 -15 -23 -29 -18 -37 4 -7 4 -10 0 -6 -5 4 -14 1
-21 -5 -10 -9 -10 -15 -1 -26 8 -11 8 -13 0 -8 -7 4 -18 -1 -25 -10 -12 -14
-12 -16 1 -9 8 4 6 0 -4 -8 -13 -10 -15 -16 -7 -16 10 0 11 -3 2 -13 -6 -8 -8
-17 -4 -20 3 -4 -1 -7 -10 -7 -9 0 -17 -4 -17 -10 0 -5 -9 -10 -20 -10 -19 0
-23 -9 -23 -52 0 -10 -4 -15 -9 -12 -5 3 -8 -2 -6 -12 2 -11 -2 -18 -9 -17 -7
2 -10 -4 -7 -12 5 -11 2 -13 -12 -8 -12 4 -15 3 -10 -5 4 -7 2 -12 -5 -12 -7
0 -10 -3 -6 -6 8 -8 -16 -33 -25 -27 -5 2 -8 -12 -8 -32 0 -26 -4 -36 -13 -32
-8 3 -14 -3 -14 -14 -1 -10 4 -19 10 -19 7 0 4 -5 -5 -11 -10 -5 -15 -16 -12
-24 4 -8 1 -15 -5 -15 -6 0 -11 -5 -11 -11 0 -5 6 -7 12 -3 10 6 10 5 1 -8 -7
-8 -10 -18 -6 -21 3 -4 2 -7 -4 -7 -13 0 -15 -58 -2 -66 6 -3 5 -12 -3 -22 -7
-9 -8 -13 -2 -9 7 4 14 -2 17 -13 3 -11 2 -20 -3 -20 -4 0 -5 -11 -2 -25 2
-14 7 -25 11 -25 4 0 7 -9 8 -20 1 -11 -2 -18 -7 -15 -6 3 -7 -1 -4 -9 3 -8
12 -17 20 -20 17 -6 16 -56 0 -68 -6 -4 -4 -14 5 -24 9 -11 9 -15 2 -10 -7 4
-13 2 -13 -3 0 -6 7 -11 16 -11 10 0 14 -6 11 -14 -3 -7 0 -19 6 -25 6 -6 7
-11 2 -11 -5 0 -1 -6 10 -13 12 -10 15 -19 9 -28 -12 -20 -14 -40 -3 -33 5 3
9 -4 9 -15 0 -23 28 -29 47 -10 9 9 11 8 9 -4 -1 -9 -5 -20 -9 -23 -12 -12 -8
-26 5 -18 8 5 9 2 5 -9 -4 -12 -1 -17 11 -17 15 0 15 -2 2 -10 -13 -8 -12 -10
4 -10 12 0 16 -5 13 -15 -5 -11 -1 -12 18 -5 20 8 23 6 19 -8 -4 -11 2 -8 15
8 11 14 21 19 21 12 0 -10 4 -9 16 2 8 9 19 14 24 11 4 -2 16 7 26 20 21 28
34 32 34 10 0 -8 4 -15 10 -15 5 0 7 8 3 18 -3 9 -3 14 1 10 4 -3 9 -14 10
-25 2 -10 10 -18 19 -18 9 0 24 -11 34 -24 9 -13 11 -21 5 -17 -8 5 -10 2 -6
-8 3 -9 10 -13 15 -10 5 3 9 -1 9 -9 0 -8 7 -17 15 -21 8 -3 14 -11 13 -18 -2
-8 7 -13 24 -13 15 1 26 -2 25 -5 -1 -3 2 -6 7 -7 16 -3 24 -26 17 -47 -10
-29 -2 -59 15 -52 7 3 16 0 20 -6 4 -7 3 -8 -4 -4 -7 4 -12 1 -12 -9 0 -9 4
-13 10 -10 6 3 7 -1 4 -9 -3 -9 -11 -13 -18 -9 -7 4 -7 1 1 -9 7 -8 10 -18 6
-21 -3 -4 -1 -7 6 -7 9 0 9 -5 1 -20 -10 -18 -7 -24 12 -21 4 0 4 -7 1 -16 -4
-10 -2 -14 4 -10 7 4 10 0 8 -10 -1 -10 -7 -17 -11 -16 -5 1 -9 -16 -9 -37 0
-32 2 -37 15 -27 8 6 12 7 8 3 -4 -5 -2 -16 5 -24 8 -11 8 -14 0 -9 -6 4 -14
3 -18 -3 -3 -5 0 -10 7 -10 9 0 9 -3 -2 -10 -12 -8 -13 -12 -1 -19 10 -6 11
-13 2 -29 -14 -26 -14 -35 -1 -27 6 3 10 -3 10 -15 0 -12 -4 -19 -9 -15 -6 3
-8 -8 -6 -25 3 -20 0 -28 -6 -24 -7 4 -6 -2 1 -16 8 -15 8 -20 1 -16 -14 9
-14 0 0 -26 8 -15 8 -19 0 -14 -6 4 -11 2 -11 -3 0 -6 -8 -11 -17 -11 -15 0
-16 -2 -3 -10 14 -9 7 -14 -13 -11 -4 1 -2 -8 5 -18 7 -11 15 -18 20 -15 4 3
6 -11 4 -31 -1 -20 2 -35 8 -35 8 0 8 -3 0 -8 -13 -8 -15 -42 -2 -42 4 0 7 -3
6 -7 -2 -12 14 -47 26 -56 8 -6 7 -10 -2 -14 -6 -2 -9 -9 -6 -14 8 -13 -16
-40 -29 -32 -6 3 -7 1 -3 -5 3 -6 0 -15 -9 -19 -8 -5 -16 -19 -18 -31 -2 -12
-10 -28 -17 -35 -12 -10 -12 -9 0 8 13 19 13 19 -4 4 -10 -10 -19 -31 -19 -47
-1 -17 -6 -28 -11 -24 -5 3 -6 -2 -2 -13 5 -15 4 -16 -9 -5 -13 11 -14 10 -8
-5 5 -14 3 -17 -9 -13 -9 4 -15 0 -15 -8 0 -8 4 -14 8 -14 3 0 9 -9 12 -21 4
-13 1 -19 -6 -16 -7 2 -19 -3 -27 -11 -13 -14 -12 -15 3 -9 16 6 16 4 -3 -22
-12 -17 -16 -32 -11 -36 6 -3 7 -13 4 -21 -3 -9 0 -20 7 -24 7 -4 9 -16 5 -29
-3 -12 -11 -18 -17 -15 -6 4 -5 -3 2 -16 7 -12 8 -20 2 -16 -5 3 -16 -1 -23
-10 -7 -8 -8 -14 -3 -12 5 2 10 -2 12 -7 2 -6 10 -21 19 -34 18 -28 29 -86 15
-77 -11 7 -21 -13 -15 -31 2 -7 11 -9 19 -6 8 3 14 -1 14 -11 0 -9 4 -16 8
-16 5 0 9 -7 9 -15 0 -8 -4 -12 -9 -9 -4 3 -8 1 -8 -5 0 -5 5 -13 10 -16 7 -5
8 -11 1 -18 -9 -12 10 -52 20 -42 3 2 11 -5 18 -17 10 -16 10 -19 -1 -12 -10
6 -10 4 1 -9 11 -14 11 -23 3 -42 -9 -20 -8 -25 8 -30 18 -6 24 -17 21 -37 0
-5 3 -8 8 -8 5 0 11 -9 14 -20 3 -13 1 -18 -6 -13 -13 7 22 -37 38 -49 6 -4 6
-8 2 -8 -12 0 20 -30 32 -30 5 0 13 -5 17 -12 4 -6 3 -8 -3 -5 -6 4 -16 0 -23
-8 -11 -13 -10 -14 2 -10 9 4 15 0 16 -10 1 -8 3 -22 4 -30 1 -9 7 -14 14 -11
9 3 11 -1 7 -11 -4 -11 -2 -14 5 -9 8 5 10 1 5 -10 -4 -12 -3 -15 5 -10 8 5
10 2 6 -8 -3 -9 -1 -16 6 -16 6 0 8 -5 5 -11 -4 -6 2 -17 13 -25 13 -9 19 -22
17 -34 -2 -11 0 -18 6 -15 5 4 9 -2 9 -12 1 -25 27 -58 32 -41 3 7 5 -2 5 -20
0 -19 4 -37 9 -40 14 -10 34 -50 34 -66 0 -8 9 -18 20 -21 11 -4 20 -15 20
-26 0 -13 -4 -18 -12 -13 -7 4 -5 -2 5 -13 9 -11 14 -23 10 -28 -5 -4 -3 -6 2
-3 15 8 31 -13 29 -39 -1 -12 3 -20 7 -17 5 3 9 -2 9 -10 0 -9 4 -16 9 -16 5
0 14 -13 21 -29 6 -16 18 -32 26 -35 8 -3 14 -12 14 -21 0 -8 8 -24 18 -34 28
-31 38 -45 40 -56 2 -5 11 -19 20 -30 18 -21 22 -28 22 -46 0 -5 5 -7 12 -3 6
4 8 3 4 -4 -3 -6 10 -28 29 -49 19 -21 35 -42 35 -46 0 -5 5 -5 10 -2 6 3 10
0 10 -8 0 -8 7 -18 16 -21 9 -4 14 -13 10 -22 -3 -8 -2 -13 2 -11 4 3 16 -5
27 -16 12 -11 14 -17 5 -13 -9 5 -8 2 3 -7 9 -8 17 -19 17 -25 0 -6 9 -14 21
-17 17 -6 18 -9 7 -23 -10 -12 -10 -14 0 -8 7 4 12 2 12 -4 0 -6 5 -8 10 -5 6
3 10 0 10 -7 0 -8 7 -23 16 -34 8 -10 13 -13 9 -7 -4 9 -1 11 9 7 9 -3 13 -10
10 -15 -3 -5 6 -9 20 -9 13 0 27 -6 29 -12 4 -10 6 -9 6 1 1 11 4 11 18 0 15
-12 16 -12 9 6 -5 15 -4 17 5 8 9 -9 17 -8 36 4 22 15 23 14 17 -3 -5 -18 -5
-18 6 -1 6 9 20 17 30 17 10 0 21 4 25 10 3 5 12 7 20 4 12 -5 12 -8 -1 -21
-8 -9 -13 -22 -10 -29 3 -8 1 -14 -5 -14 -6 0 -7 -4 -4 -10 3 -5 0 -7 -8 -4
-8 3 -18 0 -23 -7 -5 -8 -3 -10 6 -4 9 5 10 2 5 -14 -4 -12 -2 -28 4 -35 8
-10 7 -17 -6 -27 -11 -9 -14 -10 -9 -1 4 7 2 12 -5 12 -8 0 -9 -10 -5 -32 6
-30 5 -31 -8 -13 -15 20 -15 20 -12 0 2 -11 -7 -28 -18 -38 -12 -10 -16 -16
-10 -13 15 8 26 -21 12 -30 -7 -4 -8 -3 -4 4 11 18 0 14 -15 -5 -12 -14 -12
-16 0 -8 11 6 13 4 8 -8 -4 -11 -1 -17 8 -17 27 0 16 -19 -12 -22 -29 -3 -39
-30 -21 -54 6 -8 3 -11 -8 -10 -9 0 -19 -6 -21 -14 -4 -13 -3 -13 6 0 9 13 11
13 11 -2 0 -10 -4 -18 -8 -18 -5 0 -14 -12 -21 -26 -10 -23 -9 -30 11 -52 13
-14 18 -22 12 -19 -7 4 -14 0 -17 -7 -3 -8 -1 -17 6 -19 8 -3 7 -10 -5 -23
-13 -13 -18 -14 -18 -5 0 9 -8 5 -20 -9 -23 -27 -25 -34 -7 -25 6 4 1 -3 -13
-14 -14 -11 -29 -21 -33 -21 -5 0 -6 -4 -3 -8 2 -4 -7 -9 -22 -10 -15 -1 -29
-7 -30 -12 -2 -6 -8 -8 -13 -4 -5 3 -9 0 -9 -6 0 -6 -4 -8 -10 -5 -5 3 -10 2
-10 -3 0 -11 -36 -24 -67 -24 -13 -1 -23 -5 -23 -10 0 -6 -7 -7 -16 -4 -8 3
-12 2 -9 -4 3 -6 1 -10 -4 -10 -6 0 -11 5 -11 10 0 6 -5 10 -11 10 -5 0 -7 -4
-4 -10 6 -10 -7 -14 -34 -10 -8 1 -12 -4 -8 -13 4 -12 0 -14 -19 -11 -14 3
-24 0 -24 -7 0 -8 -13 -10 -42 -5 -27 4 -38 3 -29 -3 21 -14 -6 -25 -64 -25
-27 -1 -49 -5 -48 -11 1 -6 -11 -10 -27 -10 -16 -1 -27 2 -24 6 12 19 -18 17
-37 -2 -18 -18 -21 -19 -16 -4 6 15 5 16 -7 6 -11 -9 -16 -9 -22 0 -5 9 -10 7
-15 -7 -7 -19 -8 -19 -8 0 -1 19 -1 19 -15 1 -8 -11 -20 -16 -29 -12 -10 4
-16 2 -14 -5 1 -6 -4 -13 -12 -16 -8 -3 -11 0 -7 7 4 6 0 11 -9 11 -9 0 -13 4
-10 10 12 20 -25 10 -46 -12 -12 -13 -19 -16 -15 -8 4 8 0 6 -8 -4 -9 -11 -16
-15 -16 -10 0 6 -12 16 -27 23 -22 10 -24 10 -15 -1 8 -11 7 -14 -9 -14 -10 0
-19 4 -19 8 0 4 -5 8 -11 8 -5 0 -8 -4 -5 -9 8 -13 -19 -8 -37 7 -11 10 -17 9
-26 -1 -6 -8 -7 -18 -3 -23 4 -4 0 -3 -10 4 -13 10 -17 10 -21 0 -4 -10 -7
-10 -18 1 -12 12 -12 13 1 6 8 -5 11 -4 7 0 -4 5 -22 10 -39 11 -22 2 -28 0
-18 -6 8 -5 12 -12 8 -15 -3 -3 -13 1 -21 10 -19 18 -28 19 -25 2 2 -6 -3 -11
-10 -9 -6 1 -12 -3 -12 -9 0 -6 -16 -9 -38 -7 -20 2 -36 8 -35 14 1 6 -4 11
-12 11 -7 0 -11 -6 -8 -14 5 -14 -9 -18 -21 -6 -10 10 -56 12 -50 1 8 -12 -20
-10 -33 3 -7 7 -12 6 -17 -6 -4 -11 -2 -14 7 -9 6 4 8 3 4 -1 -12 -14 -38 -15
-32 -2 3 7 0 4 -7 -5 -10 -14 -13 -15 -23 -2 -11 16 -49 9 -39 -7 3 -5 0 -10
-5 -10 -6 -1 -17 -2 -23 -3 -7 -1 -19 3 -27 8 -12 9 -13 8 -9 -5 5 -12 0 -14
-24 -11 -24 4 -29 2 -23 -8 6 -10 4 -12 -8 -7 -10 3 -17 2 -17 -3 0 -11 -60
-41 -70 -35 -4 3 -11 -2 -14 -11 -3 -8 -10 -13 -15 -10 -5 3 -15 -2 -22 -11
-10 -12 -10 -14 -2 -9 21 12 15 -3 -13 -31 -21 -21 -28 -23 -35 -12 -7 11 -9
11 -9 -2 0 -16 -26 -34 -42 -31 -5 1 -8 -2 -8 -8 0 -5 -6 -10 -14 -10 -9 0
-12 -7 -9 -18 2 -10 -3 -24 -12 -32 -13 -11 -15 -10 -9 6 5 13 4 16 -4 9 -6
-5 -13 -22 -16 -37 -6 -38 -24 -68 -39 -64 -6 1 -9 1 -5 -1 11 -6 -22 -53 -37
-53 -7 0 -19 -8 -26 -17 -12 -14 -12 -16 0 -9 9 6 12 5 10 -3 -3 -7 -9 -13
-14 -13 -6 -1 -16 -8 -23 -17 -10 -14 -11 -13 -5 4 5 16 2 14 -18 -7 -19 -20
-29 -24 -37 -16 -8 8 -13 7 -18 -6 -5 -14 -9 -15 -15 -4 -7 10 -9 11 -9 0 0
-7 -5 -10 -10 -7 -6 3 -10 1 -10 -5 0 -6 -5 -8 -12 -4 -8 5 -9 2 -5 -9 5 -12
-1 -19 -18 -23 -14 -3 -31 -4 -39 -1 -7 3 -19 0 -25 -6 -6 -6 -11 -7 -11 -3 0
5 -8 -1 -17 -13 -10 -11 -29 -23 -43 -25 -17 -2 -24 -9 -22 -20 2 -9 -1 -16
-5 -15 -23 4 -43 -2 -38 -11 3 -5 1 -11 -4 -11 -6 -1 -16 -2 -23 -3 -6 0 -13
-7 -16 -15 -3 -8 0 -11 7 -7 6 4 11 3 11 -2 0 -5 -14 -12 -32 -16 -17 -3 -28
-9 -24 -13 4 -4 -4 -13 -16 -20 -19 -10 1 -12 131 -13 149 0 154 1 183 25 16
14 35 25 42 25 40 0 194 88 251 143 21 20 41 37 44 37 4 0 15 14 25 30 30 51
152 169 192 187 28 12 85 18 204 24 91 3 208 14 260 23 52 10 104 19 115 20
11 2 59 16 106 30 130 40 226 56 404 71 120 9 375 90 540 171 123 61 231 148
240 194 7 36 15 37 17 2 1 -18 3 -44 4 -59 1 -16 4 -89 7 -163 3 -115 7 -142
26 -179 32 -62 64 -91 101 -91 41 0 47 22 17 62 -17 22 -28 52 -32 88 -4 30
-13 78 -20 105 -11 42 -24 227 -28 405 -2 116 33 243 94 338 43 67 59 73 70
26 4 -16 17 -49 31 -74 13 -25 34 -72 45 -105 85 -243 86 -432 3 -675 -16 -47
-37 -116 -45 -155 -19 -79 -84 -220 -120 -259 -13 -15 -42 -57 -64 -94 -22
-37 -51 -82 -65 -101 -14 -19 -26 -39 -26 -43 0 -4 41 -8 90 -8 100 0 100 -1
75 70 l-15 43 35 38 c19 22 35 42 35 47 0 4 10 18 23 32 26 29 79 135 101 200
8 25 23 65 34 90 11 25 30 91 42 148 18 79 27 102 38 100 19 -4 67 -84 77
-129 20 -90 -13 -255 -75 -377 -22 -44 -40 -83 -40 -87 0 -4 -16 -41 -35 -82
-19 -41 -35 -79 -35 -84 0 -5 17 -9 38 -9 39 0 39 0 51 53 13 58 40 114 106
218 24 37 49 86 56 110 9 27 23 48 40 58 15 8 35 28 44 43 9 15 21 28 26 28 6
0 7 -5 3 -11 -16 -26 -20 -108 -9 -170 9 -46 -19 -156 -45 -184 -21 -22 -50
-96 -50 -126 0 -17 8 -19 79 -19 l80 0 -2 33 c0 17 2 50 6 72 4 22 10 56 13
75 8 42 23 74 24 50 0 -10 3 -11 8 -3 4 6 19 14 33 18 49 12 63 -37 43 -144
-20 -100 -19 -101 22 -101 33 0 36 3 60 56 14 31 32 86 40 123 8 36 28 120 44
186 16 66 32 143 35 170 3 28 8 64 10 80 10 77 17 182 17 248 0 39 -1 159 -2
265 0 106 1 196 3 200 3 4 8 32 11 62 4 30 10 66 14 80 13 44 56 109 82 122
14 7 52 29 85 49 162 96 301 164 465 226 83 31 186 93 230 138 30 31 32 37 21
57 -22 41 -62 62 -124 66 -62 5 -85 24 -54 47 10 7 17 17 17 23 0 11 23 7 143
-27 43 -12 94 -32 114 -43 l36 -22 -9 -75 c-18 -164 -4 -269 44 -323 20 -24 0
-48 -40 -48 -63 0 -221 -112 -414 -296 -17 -16 -57 -49 -89 -74 -31 -25 -76
-63 -100 -85 -24 -22 -54 -50 -67 -61 -52 -48 -102 -104 -122 -137 -11 -19
-34 -54 -51 -79 -36 -54 -91 -209 -82 -231 13 -34 46 3 142 153 34 54 49 73
160 208 121 146 151 178 292 308 192 177 298 227 513 238 121 7 136 10 245 41
44 13 100 26 125 30 25 4 59 9 75 11 99 16 161 29 252 53 55 15 129 29 162 30
59 2 62 1 72 -26 12 -30 4 -174 -17 -296 -11 -67 -13 -171 -3 -188 5 -10 10
-67 11 -128 1 -61 5 -111 9 -111 28 0 84 257 94 430 5 103 17 210 29 262 13
61 32 74 114 83 28 3 84 16 124 29 40 13 118 34 173 46 55 12 111 30 125 40
14 10 53 31 88 48 65 32 199 158 248 234 13 21 29 38 35 38 6 0 9 38 8 104
l-1 104 -24 -10 c-18 -9 -21 -15 -14 -28 7 -13 5 -20 -6 -24 -10 -4 -13 -1 -9
7 4 6 0 4 -9 -7 -8 -10 -20 -15 -26 -11 -7 4 -14 -2 -17 -15 -4 -14 -11 -19
-21 -15 -12 4 -12 3 -3 -8 9 -11 8 -17 -2 -26 -8 -6 -17 -8 -20 -5 -9 9 -37
-22 -29 -31 4 -5 -1 -5 -10 -2 -11 4 -19 0 -23 -14 -4 -10 -13 -19 -20 -19 -8
0 -17 -5 -21 -12 -5 -7 -3 -8 7 -3 12 8 12 6 0 -8 -7 -9 -22 -17 -33 -17 -10
0 -17 -4 -13 -9 3 -5 1 -12 -5 -16 -6 -4 -7 -11 -4 -17 4 -7 2 -8 -5 -4 -7 4
-27 -9 -50 -33 -22 -23 -45 -41 -51 -41 -6 0 -9 -4 -6 -9 3 -5 -1 -12 -10 -15
-8 -3 -13 -10 -9 -15 3 -5 -4 -12 -14 -16 -11 -3 -23 -15 -26 -26 -4 -10 -10
-17 -15 -14 -4 3 -13 -2 -20 -10 -10 -12 -16 -13 -28 -3 -13 10 -14 10 -8 1 4
-8 1 -13 -9 -13 -10 0 -13 5 -9 13 5 8 2 8 -9 -2 -11 -9 -17 -10 -17 -2 0 6
-7 11 -15 11 -8 0 -15 4 -15 10 0 5 -10 8 -22 6 -13 -1 -23 -8 -23 -14 0 -6
-4 -14 -9 -19 -5 -4 -6 -3 -3 3 4 7 0 15 -9 18 -8 3 -13 2 -10 -3 8 -12 -47
-21 -61 -10 -7 7 -14 6 -18 -1 -3 -6 -11 -8 -16 -5 -5 4 -9 1 -9 -5 0 -8 -6
-8 -20 0 -11 6 -20 7 -20 1 0 -5 -7 -12 -16 -15 -9 -3 -12 -2 -8 5 7 13 -38
-12 -48 -26 -5 -6 -11 -5 -16 3 -12 19 -71 17 -89 -3 -4 -4 -2 -5 5 -1 6 4 12
5 12 2 0 -3 -10 -10 -21 -17 -12 -6 -19 -7 -15 -1 3 5 -1 15 -9 22 -13 10 -19
9 -35 -5 -18 -17 -20 -17 -26 -1 -5 14 -9 15 -15 4 -6 -9 -11 -10 -16 -3 -10
14 -56 17 -47 3 4 -6 -2 -6 -15 1 -17 10 -22 9 -27 -4 -5 -11 -10 -13 -19 -5
-11 9 -12 6 -8 -11 4 -15 3 -20 -5 -15 -7 4 -12 1 -13 -6 0 -7 -5 -3 -11 9
-13 26 -40 40 -31 16 5 -13 1 -15 -20 -11 -15 3 -24 2 -22 -2 3 -5 -2 -11 -11
-14 -24 -9 -31 -7 -14 4 8 5 11 10 5 10 -21 0 -37 -18 -29 -31 6 -12 5 -12 -8
-1 -12 9 -18 10 -23 2 -4 -7 -14 -3 -26 11 -10 12 -19 19 -19 14 0 -4 -6 -2
-14 4 -11 9 -14 8 -12 -5 0 -11 -7 -18 -21 -19 -13 -1 -19 3 -16 11 7 18 -50
-10 -68 -34 -13 -16 -12 -16 6 -2 19 14 19 14 6 -3 -14 -17 -16 -17 -27 -3
-14 20 -48 22 -41 2 4 -10 1 -13 -9 -9 -7 3 -14 9 -14 14 0 15 -15 10 -38 -11
-21 -20 -37 -27 -28 -12 2 4 -4 8 -14 8 -11 0 -16 -5 -12 -15 3 -9 1 -12 -6
-7 -6 3 -13 2 -17 -3 -3 -6 -19 -8 -36 -6 -26 3 -29 1 -18 -11 10 -12 9 -13
-7 -8 -30 11 -44 25 -37 37 4 6 1 7 -8 1 -23 -14 -38 -13 -32 2 3 8 10 11 17
7 6 -3 2 4 -9 17 -11 13 -14 20 -7 16 8 -5 12 0 12 13 0 12 -4 21 -8 21 -5 0
-9 7 -9 15 0 8 4 12 9 9 4 -3 8 2 8 10 0 9 -5 16 -11 16 -6 0 -9 6 -6 13 2 6
-3 17 -11 23 -12 9 -12 14 -1 33 12 20 12 24 -5 37 -11 8 -16 14 -11 14 4 0 0
10 -11 22 -10 12 -14 18 -8 15 15 -8 26 55 12 64 -6 4 -5 8 2 11 11 3 11 8 1
24 -9 14 -11 15 -7 2 3 -12 1 -15 -10 -11 -7 3 -14 14 -14 24 0 10 -4 19 -9
19 -5 0 -7 8 -4 19 3 10 -1 22 -8 26 -8 6 -10 4 -5 -6 4 -8 1 -6 -7 4 -9 10
-18 18 -21 18 -30 -4 -49 0 -38 7 9 6 5 12 -13 20 -34 15 -38 15 -32 -2 4 -11
1 -13 -10 -9 -11 4 -14 2 -9 -5 7 -11 -13 -8 -39 7 -14 7 -85 7 -85 0 0 -11
-52 -1 -64 11 -8 10 -5 9 13 0 19 -10 22 -10 15 1 -4 7 -8 27 -8 44 -1 19 -6
29 -14 27 -8 -1 -11 2 -8 7 4 5 0 12 -6 14 -10 4 -10 6 0 6 6 1 12 9 12 19 0
14 2 15 10 2 7 -12 9 -10 7 7 0 12 -4 20 -7 18 -3 -2 -12 0 -20 5 -12 7 -12
12 -2 22 9 9 12 9 12 -2 0 -13 2 -13 9 -1 5 8 7 21 3 29 -4 11 -1 13 9 7 8 -5
5 2 -6 15 -11 13 -14 20 -6 15 10 -5 12 -4 7 3 -4 7 -14 12 -22 12 -8 0 -12 5
-9 10 3 6 1 10 -5 10 -6 0 -8 5 -5 10 3 6 1 10 -5 10 -6 0 -8 5 -5 11 5 6 12
4 21 -8 10 -13 13 -14 12 -3 -2 8 2 14 9 15 6 0 15 4 20 9 4 5 3 6 -3 3 -7 -4
-15 0 -18 9 -9 23 -7 31 3 15 7 -10 9 -7 8 12 -1 14 -4 24 -6 22 -6 -6 -31 23
-31 36 0 6 8 18 18 26 9 8 12 12 6 9 -13 -6 -27 18 -16 28 8 9 12 36 4 33 -8
-2 -12 7 -12 24 0 6 7 9 15 6 8 -4 17 -1 21 5 5 7 3 8 -5 4 -8 -5 -12 -3 -10
5 3 28 -1 39 -16 39 -11 0 -15 9 -13 29 2 26 4 28 23 19 17 -10 18 -9 7 4 -10
13 -10 17 0 21 8 3 6 6 -6 6 -15 1 -16 4 -6 16 7 8 8 15 3 15 -5 0 -9 9 -9 19
0 11 4 18 7 15 4 -2 11 1 14 7 5 7 16 2 33 -13 14 -13 22 -17 18 -10 -9 15 10
16 19 1 5 -6 12 -4 22 8 8 10 12 13 9 7 -3 -7 1 -15 10 -18 8 -3 13 -2 10 3
-6 10 31 24 54 21 8 -1 18 -7 22 -13 6 -9 8 -9 8 0 0 6 9 10 20 8 13 -2 18 0
14 7 -4 6 -1 9 7 6 8 -3 20 2 27 11 11 13 12 13 6 1 -5 -10 0 -8 15 4 22 20
22 20 16 0 -6 -17 -6 -18 5 -1 6 9 16 14 22 11 7 -4 8 -2 4 4 -4 7 -2 13 3 13
6 1 17 2 24 3 6 1 11 8 9 15 -1 8 2 10 10 5 7 -5 20 -9 30 -9 14 -1 15 2 6 18
-7 14 -7 17 1 13 6 -4 11 -2 11 4 0 6 11 8 24 6 19 -3 23 -1 19 11 -4 10 0 14
13 11 14 -2 18 2 16 16 -3 18 -2 18 14 5 11 -9 15 -9 10 -1 -7 12 12 39 26 38
3 -1 10 3 15 8 5 5 3 6 -4 2 -18 -10 -16 -4 9 43 12 22 25 38 29 36 4 -3 5 4
2 15 -3 12 -2 20 3 19 5 -1 15 -1 23 0 11 1 11 4 1 17 -11 12 -11 15 0 12 7
-2 16 8 20 22 4 14 12 24 19 22 7 -1 10 2 6 8 -4 6 4 20 17 31 13 11 17 17 9
13 -9 -5 -12 -3 -7 4 4 7 14 12 22 12 8 0 14 5 14 11 0 5 -4 7 -10 4 -6 -3 -7
1 -4 9 3 9 10 14 14 11 5 -3 12 0 16 6 3 6 1 15 -6 19 -9 6 -7 10 9 15 11 3
21 11 21 16 0 6 5 7 10 4 6 -4 10 -3 9 2 -3 18 2 34 9 29 4 -2 14 -1 22 5 13
7 13 9 1 9 -11 0 -10 4 5 16 10 8 13 13 7 9 -7 -3 -13 -4 -13 0 0 3 11 10 25
15 14 5 24 13 23 17 -3 10 55 68 64 65 4 -1 3 10 -2 24 -6 14 -6 23 -2 20 5
-3 16 4 25 15 11 13 13 19 4 19 -7 0 -8 3 -2 8 6 4 17 20 25 35 12 25 12 29 0
37 -11 7 -12 10 -2 10 7 0 10 5 7 10 -3 5 -1 10 6 10 9 0 9 3 0 14 -9 11 -9
16 0 22 8 5 10 3 4 -7 -5 -8 -4 -11 0 -6 15 13 17 49 3 42 -7 -4 -5 0 4 8 10
8 15 17 11 20 -3 4 -1 7 5 7 7 0 12 16 12 39 0 22 5 43 11 46 6 4 8 13 5 20
-2 7 2 22 10 33 11 16 11 21 1 25 -9 3 -9 7 2 20 10 12 10 17 2 17 -8 0 -7 6
3 16 9 8 14 20 11 25 -4 5 -2 9 4 9 5 0 10 8 11 18 2 54 6 70 14 64 5 -3 7 2
3 11 -3 9 -1 17 5 19 5 2 12 26 14 52 2 27 10 56 19 66 12 13 12 19 2 30 -8 9
-9 11 0 6 7 -4 12 0 12 11 -1 33 13 88 24 102 10 12 9 13 -3 6 -12 -6 -13 -5
-2 6 6 7 12 21 12 32 0 10 3 16 8 14 4 -3 8 9 9 26 4 58 9 81 22 85 9 3 9 8
-1 20 -7 9 -8 13 -2 9 7 -4 14 2 18 16 8 31 7 39 -3 33 -5 -3 -11 0 -13 7 -5
12 27 49 34 41 3 -2 5 2 6 9 0 6 3 22 5 34 4 14 0 24 -10 27 -11 5 -13 10 -4
20 6 7 8 16 4 19 -3 4 -1 7 6 7 7 0 10 4 7 9 -3 5 2 8 10 7 9 0 18 7 19 17 2
10 -1 14 -8 10 -7 -4 -8 0 -4 11 4 10 7 20 7 22 0 3 4 3 9 0 5 -4 8 2 6 11 -1
10 2 26 7 37 8 14 7 17 -3 11 -9 -6 -11 -2 -7 13 4 12 2 20 -3 16 -5 -3 -9 -1
-9 4 0 17 13 22 28 9 13 -10 14 -9 7 2 -6 11 -4 13 9 8 14 -6 15 -3 6 13 -6
11 -7 20 -2 20 5 0 14 11 20 24 8 19 8 26 -1 30 -7 2 -3 5 7 5 20 1 20 1 0 15
-10 8 -16 18 -11 22 4 4 7 2 7 -4 0 -7 4 -12 8 -12 5 0 9 7 9 15 0 8 -4 15 -9
15 -4 0 -8 12 -8 26 0 17 4 23 13 18 8 -5 8 -3 -2 9 -7 9 -17 14 -22 11 -5 -3
-9 0 -9 5 0 6 -6 11 -14 11 -8 0 -17 7 -20 16 -10 26 -7 29 10 8 11 -14 10 -9
-3 16 -10 19 -22 37 -26 38 -4 2 -3 10 4 18 8 10 8 14 0 14 -6 0 -11 6 -11 14
0 13 -17 23 -45 27 -5 1 -20 12 -32 25 -19 21 -22 21 -28 6 -6 -16 -8 -15 -21
2 -10 15 -11 23 -2 33 9 11 7 12 -7 7 -13 -5 -16 -4 -11 4 4 7 2 12 -4 12 -6
0 -18 7 -26 15 -8 8 -21 12 -29 9 -8 -4 -15 -1 -15 6 0 6 -4 9 -9 6 -5 -3 -12
1 -15 10 -3 8 -10 12 -16 9 -6 -4 -7 -12 -3 -18 3 -7 -3 -4 -15 7 -12 10 -19
22 -17 26 3 4 -3 14 -12 21 -12 10 -14 10 -9 2 4 -7 2 -13 -3 -13 -6 0 -11 5
-11 10 0 6 -11 10 -25 10 -14 0 -25 5 -25 12 0 9 -3 9 -12 0 -14 -14 -32 -16
-23 -2 3 5 2 16 -2 24 -8 14 -12 16 -33 16 -6 0 -15 11 -22 25 -6 13 -14 22
-19 20 -17 -11 -37 7 -34 31 1 13 -2 27 -8 31 -6 4 -7 1 -2 -7 6 -9 4 -11 -5
-5 -10 6 -9 11 5 22 18 12 17 13 -6 13 -19 0 -21 2 -9 10 11 7 11 10 2 10 -7
0 -10 5 -7 10 3 6 1 10 -5 10 -6 0 -8 5 -5 10 3 6 -2 10 -12 11 -10 0 -13 3
-8 5 12 5 12 85 0 104 -5 9 -4 11 3 6 7 -4 12 -4 13 1 6 52 4 83 -5 83 -6 0
-4 6 4 13 17 13 20 60 6 74 -5 5 -6 2 -1 -6 6 -10 4 -12 -5 -6 -10 6 -10 11 3
20 9 7 14 14 11 18 -6 6 16 48 31 59 6 5 5 8 -4 8 -8 0 -11 6 -7 16 4 11 2 15
-7 11 -9 -3 -13 4 -13 27 1 24 5 30 19 28 19 -3 23 14 5 21 -8 3 -7 6 4 6 22
1 32 17 17 27 -8 5 -9 3 -4 -6 6 -9 4 -11 -4 -5 -9 5 -10 10 -2 18 7 7 7 16 0
29 -7 14 -6 20 6 24 8 3 15 15 15 26 0 13 -4 17 -12 12 -9 -5 -9 -2 1 9 12 15
11 17 -3 17 -9 0 -16 5 -16 11 0 5 6 7 13 3 6 -4 4 2 -7 14 -10 12 -23 19 -29
15 -6 -4 -8 0 -4 11 4 11 3 15 -4 10 -6 -4 -15 0 -20 7 -7 11 -9 11 -9 1 0 -8
-5 -10 -12 -6 -9 5 -8 2 1 -9 12 -15 12 -17 -4 -11 -11 5 -16 3 -12 -3 11 -17
16 -64 6 -58 -5 4 -9 0 -9 -9 0 -8 -4 -16 -9 -18 -10 -3 -23 -50 -23 -80 1
-12 -4 -15 -16 -11 -15 6 -15 5 -3 -10 11 -14 11 -17 0 -17 -11 0 -11 -2 1 -9
8 -6 18 -7 24 -4 5 4 6 1 2 -6 -5 -7 0 -18 10 -26 12 -9 14 -14 6 -15 -7 0
-11 -4 -8 -8 2 -4 -18 -9 -45 -9 -46 -2 -54 3 -50 30 0 4 -4 7 -9 7 -6 0 -10
5 -10 11 0 5 4 8 9 5 5 -4 8 2 6 11 -2 10 -4 22 -4 26 -1 4 -9 7 -18 5 -19 -3
-25 20 -10 39 6 9 4 15 -8 19 -12 5 -13 9 -5 14 8 5 2 10 -15 14 -22 6 -25 9
-15 21 10 12 9 15 -3 15 -10 0 -15 7 -12 20 2 11 0 20 -6 20 -5 0 -8 3 -8 8 3
19 -2 33 -11 27 -5 -3 -10 0 -10 9 0 8 -6 17 -12 19 -10 4 -10 6 0 6 7 1 4 9
-8 21 -11 11 -20 31 -20 45 0 18 -5 25 -20 25 -11 0 -20 6 -20 14 0 8 -9 18
-20 21 -11 3 -20 13 -20 21 0 8 -4 12 -10 9 -5 -3 -10 3 -10 13 0 16 -5 19
-22 15 -16 -3 -19 -2 -10 4 12 9 0 24 -52 63 -18 13 -19 13 -11 0 8 -13 7 -13
-8 -1 -9 7 -17 10 -17 5 0 -4 -7 1 -16 12 -8 10 -13 14 -10 8 3 -7 -1 -15 -10
-18 -12 -5 -15 -2 -10 11 4 10 4 14 0 10 -4 -4 -18 0 -32 9 -13 9 -21 11 -17
4 4 -7 1 -11 -6 -9 -28 3 -40 -1 -34 -13 4 -7 -1 -4 -9 6 -9 11 -19 17 -22 13
-4 -4 -13 -2 -19 3 -9 7 -14 6 -18 -3z m274 -74 c13 -16 12 -17 -3 -4 -10 7
-18 15 -18 17 0 8 8 3 21 -13z m-251 -137 c87 -10 151 -26 165 -40 7 -6 44
-40 84 -75 61 -55 71 -68 70 -95 -1 -17 7 -51 18 -76 25 -56 33 -91 47 -215 4
-27 9 -63 12 -80 9 -50 93 -316 124 -390 37 -93 41 -103 31 -109 -14 -9 -51
25 -67 62 -25 61 -98 161 -116 162 -38 0 -58 -36 -59 -107 0 -38 -2 -81 -4
-98 -2 -16 -6 -65 -9 -108 -8 -98 -15 -135 -34 -172 -51 -104 -100 -81 -116
53 -4 30 -10 73 -15 95 -5 23 -15 87 -22 142 -11 95 -62 265 -78 265 -5 0 -16
-9 -26 -20 -16 -18 -17 -37 -10 -252 8 -267 10 -293 24 -331 15 -40 14 -80 -5
-127 -13 -32 -32 -52 -90 -91 -41 -27 -88 -52 -106 -56 -18 -3 -40 -11 -48
-18 -55 -44 -243 -110 -228 -79 121 253 115 236 134 394 9 81 26 259 29 308 2
30 6 83 9 118 6 73 6 73 -69 46 l-50 -18 -6 -54 c-3 -30 -9 -75 -12 -100 -13
-89 -16 -127 -22 -224 -3 -55 -7 -111 -10 -125 -2 -14 -7 -51 -9 -82 -6 -66
-21 -109 -37 -109 -7 0 -9 -3 -6 -6 4 -4 -2 -19 -13 -34 -11 -16 -20 -33 -20
-39 0 -6 -4 -11 -9 -11 -5 0 -10 15 -10 33 0 17 0 39 -1 47 0 8 1 38 3 67 2
28 0 75 -5 105 -5 29 -11 64 -12 78 -6 42 -29 114 -46 140 -23 36 -84 164 -82
173 1 4 -3 7 -8 7 -6 0 -10 5 -10 10 0 10 -37 68 -51 80 -3 3 -17 22 -31 43
-51 76 -214 169 -323 185 -44 6 -138 5 -170 -2 -11 -2 -26 -5 -32 -5 -7 -1
-19 -14 -27 -29 -18 -35 -75 -92 -93 -92 -7 0 -13 -4 -13 -9 0 -5 -10 -13 -22
-17 -13 -4 -51 -20 -85 -35 -33 -16 -66 -29 -71 -29 -20 0 -138 -42 -190 -67
-34 -17 -74 -27 -108 -29 -30 -1 -69 -8 -88 -14 -39 -12 -68 -19 -116 -25 -19
-3 -58 -10 -86 -15 -28 -6 -64 -13 -80 -16 -69 -11 -88 -17 -121 -40 -20 -13
-42 -24 -49 -24 -8 0 -14 -4 -14 -9 0 -5 -8 -12 -17 -16 -10 -3 -39 -24 -64
-48 -90 -83 -141 -122 -158 -122 -25 0 -42 -17 -66 -62 -11 -21 -22 -40 -25
-43 -3 -3 -16 -20 -29 -37 -22 -33 -50 -44 -52 -20 0 6 -7 -8 -16 -33 -16 -49
-18 -99 -4 -113 13 -13 54 19 58 45 5 30 30 68 46 68 7 0 26 14 42 30 16 17
34 30 41 30 7 0 25 17 41 38 15 20 40 50 56 66 38 37 168 114 232 136 28 10
82 29 120 43 77 28 104 34 185 42 97 10 119 14 142 26 12 7 43 13 69 14 27 1
63 11 84 24 20 11 45 21 55 21 10 0 21 4 24 9 6 10 42 17 126 27 30 3 69 12
85 19 39 16 132 76 170 109 17 15 54 39 83 53 28 14 52 30 52 34 0 5 15 11 33
14 35 7 63 -3 145 -49 46 -27 262 -237 262 -256 0 -6 9 -30 19 -53 49 -108 56
-135 67 -257 10 -114 15 -158 20 -182 7 -31 -18 -78 -41 -78 -7 0 -20 9 -28
21 -8 11 -18 16 -21 11 -11 -18 -57 0 -71 27 -18 35 -34 49 -67 55 -14 2 -37
10 -50 17 -38 22 -157 54 -233 64 -27 4 -54 11 -59 16 -6 5 -16 9 -23 9 -8 0
-26 8 -40 17 -33 22 -88 43 -126 49 -15 2 -56 15 -90 28 -97 37 -118 43 -182
45 -33 1 -82 5 -110 8 -98 11 -191 5 -295 -20 -102 -25 -127 -26 -114 -6 9 15
-5 61 -17 54 -5 -4 -23 -8 -40 -10 -36 -5 -74 -33 -111 -82 -16 -20 -52 -53
-82 -73 -57 -37 -139 -122 -218 -225 -26 -33 -69 -85 -96 -115 -28 -30 -53
-68 -56 -84 -11 -53 -56 -82 -92 -58 -14 9 -44 78 -37 86 3 3 -2 29 -10 58
-24 80 -41 162 -38 173 2 6 4 17 4 25 0 8 4 21 10 28 15 19 9 153 -9 180 -12
19 -21 22 -42 17 -15 -4 -30 -12 -34 -18 -6 -9 -11 -8 -18 3 -8 13 -11 12 -24
-5 -9 -11 -16 -22 -16 -25 0 -3 -18 -25 -39 -48 -21 -23 -49 -62 -61 -87 -12
-25 -30 -50 -40 -55 -10 -5 -20 -17 -24 -25 -3 -9 -2 -14 3 -11 5 4 7 -2 4
-12 -2 -10 -15 -19 -28 -20 -30 -2 -34 12 -38 128 -3 93 17 164 70 245 33 51
208 226 250 250 17 10 37 28 43 40 6 12 26 30 43 40 18 11 43 29 57 42 23 22
122 59 146 55 5 -1 20 7 31 17 18 18 23 18 42 5 18 -13 24 -13 49 0 29 15 52
52 45 74 -13 35 -181 -17 -335 -104 -43 -24 -81 -44 -85 -44 -4 0 -28 -18 -53
-40 -44 -40 -76 -57 -87 -46 -7 6 103 124 161 172 16 14 24 29 21 43 -2 12 0
21 6 21 5 0 9 6 9 14 0 7 19 34 43 58 23 25 49 55 57 66 8 12 35 36 60 54 64
46 68 49 110 90 20 20 53 44 71 53 44 23 126 102 145 140 14 27 124 129 142
131 4 0 14 4 22 7 8 4 65 22 125 42 98 32 121 36 215 35 142 0 279 -8 293 -17
12 -7 295 -5 308 3 10 6 167 13 449 19 333 9 432 20 505 58 42 21 99 35 175
43 36 3 66 8 68 9 4 3 106 -2 162 -9z m-2931 -469 c-2 -1 -13 -9 -24 -17 -19
-14 -19 -14 -6 3 7 9 18 17 24 17 6 0 8 -1 6 -3z m3734 -709 c82 -46 298 -196
314 -218 19 -26 12 -82 -21 -185 -27 -86 -33 -110 -42 -195 -4 -30 -13 -67
-20 -82 -8 -15 -14 -36 -14 -48 0 -18 -23 -65 -40 -80 -3 -3 -6 -30 -6 -60 0
-30 -4 -68 -7 -85 -17 -73 -27 -157 -32 -249 -3 -64 -11 -117 -24 -150 -22
-59 -51 -160 -55 -196 -2 -14 -6 -32 -9 -40 -4 -8 -14 -51 -22 -95 -18 -89
-42 -147 -65 -153 -8 -3 -12 -1 -8 3 4 4 -1 24 -11 44 -11 20 -22 52 -25 72
-7 48 -14 63 -66 147 -40 64 -50 74 -92 87 -48 17 -150 26 -192 18 -13 -3 -37
-17 -54 -31 -16 -15 -58 -49 -92 -77 -34 -27 -69 -63 -77 -80 -9 -16 -28 -46
-43 -65 -43 -54 -123 -253 -134 -332 -4 -27 -11 -48 -16 -48 -4 0 -11 -11 -14
-25 -4 -14 -11 -23 -16 -20 -14 9 -4 147 15 212 9 29 13 58 10 63 -3 6 -3 15
1 22 4 6 8 25 9 42 1 17 9 56 17 88 26 97 22 430 -7 758 -3 36 -8 90 -9 120
-6 88 -44 155 -92 163 -57 8 -52 47 6 47 22 0 45 7 54 16 9 8 25 17 36 19 11
2 30 11 42 19 12 9 30 16 40 16 11 0 15 5 12 15 -16 42 105 -25 153 -85 22
-26 55 -123 56 -162 0 -21 4 -38 9 -38 8 0 47 40 49 49 0 3 2 14 4 25 2 10 -6
42 -17 70 -12 28 -24 66 -27 85 -5 26 -15 39 -41 53 -59 33 -75 54 -71 98 1
22 53 50 81 45 13 -3 36 1 50 9 17 8 35 10 49 4 13 -4 26 -6 31 -3 8 5 80 -58
80 -70 0 -19 84 -98 132 -124 l39 -20 -5 45 c-7 56 -19 79 -65 125 -20 20 -53
68 -73 106 -49 96 -44 117 47 188 21 17 50 43 64 59 40 44 123 96 154 96 15 0
37 -6 50 -12z m-2543 -282 c25 -1 57 -8 73 -14 15 -6 27 -9 27 -6 0 3 7 -2 16
-11 9 -9 23 -14 30 -11 7 3 16 1 19 -4 4 -6 16 -10 27 -10 12 0 29 -6 37 -13
29 -24 99 -41 124 -30 12 6 33 8 47 6 35 -5 134 -46 200 -82 31 -17 83 -37
116 -44 33 -8 85 -28 116 -45 31 -17 73 -38 94 -46 156 -59 211 -77 247 -80
165 -18 251 -32 255 -44 1 -5 15 -7 30 -5 18 3 35 -3 49 -16 12 -12 25 -21 28
-21 18 0 36 -36 58 -111 20 -72 24 -107 25 -239 1 -106 6 -177 17 -225 17 -71
23 -226 11 -280 -3 -16 -8 -43 -11 -60 -11 -86 -18 -111 -31 -121 -10 -8 -14
-33 -14 -86 0 -41 -7 -98 -17 -129 -9 -30 -15 -58 -14 -64 2 -5 4 -19 5 -30 2
-12 11 -33 21 -48 28 -44 30 -99 4 -175 -13 -37 -29 -75 -38 -84 -8 -10 -11
-18 -8 -18 3 0 0 -17 -7 -37 -7 -21 -16 -65 -19 -98 -4 -33 -13 -78 -21 -100
-8 -22 -17 -57 -20 -78 -3 -21 -12 -50 -20 -65 -7 -15 -21 -52 -31 -82 -17
-50 -46 -104 -85 -154 -52 -68 -232 -221 -299 -255 -20 -11 -61 -46 -91 -79
-30 -33 -73 -70 -95 -83 -22 -13 -54 -33 -71 -46 -17 -13 -36 -23 -42 -23 -7
0 -12 -4 -12 -10 0 -5 -5 -10 -11 -10 -6 0 -25 -10 -42 -23 -44 -30 -63 -42
-127 -74 -30 -15 -82 -42 -114 -61 -33 -18 -87 -42 -120 -53 -84 -28 -142 -54
-228 -103 -27 -15 -48 -24 -48 -20 0 3 -20 -5 -44 -19 -42 -24 -51 -25 -199
-22 -146 2 -158 3 -199 27 -48 29 -178 163 -178 184 0 8 -4 14 -10 14 -5 0
-10 6 -10 14 0 8 -6 16 -13 19 -7 3 -28 33 -47 68 -18 35 -49 78 -67 97 -19
19 -32 36 -29 39 4 5 -19 54 -69 143 -7 14 -30 59 -50 100 -65 137 -95 192
-130 237 -19 25 -35 53 -35 62 0 10 -4 21 -9 27 -34 35 -147 324 -155 395 -2
15 -6 31 -10 37 -3 5 -7 81 -8 168 -3 178 6 222 54 266 30 26 30 26 80 11 40
-11 68 -31 130 -91 44 -42 86 -81 94 -85 8 -5 47 -10 87 -12 39 -2 83 -7 97
-11 36 -9 231 -12 257 -3 15 6 23 3 27 -7 9 -23 -1 -37 -60 -79 -65 -46 -120
-95 -108 -95 5 0 5 -4 -1 -8 -5 -4 -21 -23 -35 -42 -23 -32 -25 -44 -25 -135
1 -55 3 -113 7 -130 11 -57 44 -115 65 -115 5 0 19 -9 31 -20 12 -12 22 -18
22 -14 0 4 11 -3 25 -16 21 -20 33 -23 95 -21 88 3 113 -4 105 -29 -5 -17 4
-23 52 -35 17 -4 34 19 43 60 l8 35 -72 35 c-39 19 -87 45 -106 57 -19 12 -49
29 -66 38 -39 19 -99 87 -108 120 -3 14 -3 19 0 11 4 -9 9 -10 13 -3 5 8 20 8
51 1 66 -16 91 -20 131 -23 19 -1 40 -5 45 -9 5 -3 30 -8 54 -12 25 -3 61 -10
80 -15 19 -6 52 -10 73 -10 21 0 54 -7 74 -15 19 -8 52 -15 72 -15 20 0 42 -5
49 -12 26 -26 11 18 -18 54 -41 50 -181 95 -324 105 -33 2 -65 8 -72 14 -7 5
-37 11 -68 13 -65 4 -96 25 -96 67 0 25 32 69 51 69 4 0 9 8 13 18 5 17 9 23
59 99 15 24 25 43 22 43 -3 0 6 21 21 48 15 26 51 94 82 152 30 57 59 111 63
120 5 8 22 45 38 82 l29 66 65 1 c39 0 69 -5 75 -12 14 -17 89 -243 96 -289 7
-43 36 -110 54 -121 6 -4 12 -14 12 -21 0 -7 9 -21 20 -31 11 -10 20 -24 20
-32 0 -7 5 -13 10 -13 6 0 10 -7 10 -15 0 -8 7 -15 16 -15 8 0 13 4 10 9 -7
11 14 28 32 25 6 -1 20 -2 30 -3 9 -1 40 -18 67 -39 95 -72 201 -100 355 -93
36 2 57 -1 75 -9 14 -7 42 -6 93 4 30 5 47 4 58 -5 12 -10 20 -9 39 1 14 7 37
10 55 6 25 -4 39 0 66 20 19 15 34 31 34 38 1 14 132 191 165 222 14 13 25 26
25 30 0 4 10 21 23 38 13 17 31 49 42 71 22 49 30 158 13 177 -7 7 -14 22 -16
32 -6 31 -30 62 -72 91 -34 24 -51 28 -132 31 -51 2 -106 8 -123 13 -16 6 -47
12 -68 16 -21 3 -47 9 -56 15 -10 5 -40 12 -67 16 -27 3 -60 11 -74 16 -14 6
-73 11 -131 13 -59 2 -116 8 -128 15 -31 16 -78 21 -236 24 -77 1 -152 8 -167
14 -21 9 -36 7 -80 -10 -29 -11 -63 -21 -76 -23 -13 -1 -32 -9 -43 -18 -24
-21 -29 -21 -29 -2 0 19 -45 64 -79 77 -38 16 -50 19 -108 23 -29 2 -61 9 -72
14 -11 6 -31 11 -45 11 -14 0 -27 4 -30 9 -4 5 -18 8 -33 6 -15 -1 -39 2 -53
7 -14 5 -63 11 -110 13 -47 3 -112 7 -145 10 -106 11 -191 8 -316 -9 -23 -3
-28 0 -34 27 -4 18 -9 78 -11 135 -2 75 -8 107 -19 118 -18 18 -17 13 -19 97
-2 55 1 71 15 81 17 12 12 38 -7 37 -17 -1 -5 62 16 81 23 22 60 90 60 112 0
9 9 20 19 26 11 5 25 27 32 47 11 34 140 173 161 173 4 0 8 5 8 11 0 17 78 89
95 89 9 0 18 6 21 14 3 8 14 13 25 11 10 -2 21 0 24 6 4 5 15 9 25 9 10 0 25
9 33 20 9 13 20 18 31 14 9 -3 23 -1 31 6 8 6 43 13 77 15 35 2 92 8 128 13
59 8 178 7 300 -2z m-774 -1248 c10 -16 -8 -26 -56 -33 -53 -8 -108 -31 -133
-56 -18 -19 -42 -16 -50 5 -7 17 24 55 48 60 11 3 36 11 55 19 39 17 127 20
136 5z m2998 -8 c32 -16 86 -68 114 -109 20 -27 44 -105 47 -150 2 -14 6 -43
10 -63 6 -31 3 -45 -21 -85 -15 -26 -39 -70 -52 -98 -13 -27 -30 -57 -38 -65
-7 -9 -21 -36 -29 -60 -19 -53 -59 -93 -129 -126 -64 -31 -117 -64 -141 -87
-29 -30 -63 -49 -75 -42 -5 3 -17 -1 -26 -9 -15 -15 -23 -17 -86 -20 -15 0
-33 -7 -39 -13 -18 -18 -36 -16 -47 3 -8 14 -12 12 -28 -15 -10 -17 -21 -31
-24 -32 -3 0 -13 -2 -22 -4 -26 -5 -22 22 13 90 45 88 89 121 103 77 5 -14 18
-18 73 -19 66 -1 89 6 123 37 29 27 74 61 113 88 21 14 33 28 28 31 -15 10
-43 80 -36 92 4 5 3 9 -2 8 -40 -7 -39 22 3 77 13 17 24 38 24 47 0 8 18 35
40 59 22 23 47 58 56 77 12 24 18 30 24 20 5 -7 2 -25 -7 -43 -13 -26 -17 -60
-14 -128 1 -19 35 -25 46 -8 3 5 11 7 18 4 8 -3 17 12 26 41 7 25 20 49 27 53
15 8 17 28 11 127 -5 86 -5 83 -32 101 -20 13 -28 14 -40 4 -8 -6 -22 -10 -32
-8 -61 14 -185 -118 -214 -226 -14 -54 -39 -106 -51 -106 -10 0 -57 -51 -58
-62 0 -5 -21 -37 -47 -73 -45 -63 -65 -77 -79 -54 -8 14 11 83 37 129 61 110
91 197 89 261 0 20 4 48 10 63 10 28 104 124 156 161 34 23 136 74 144 71 3
-1 18 -8 34 -16z m-2770 -112 c-12 -40 -7 -114 11 -153 33 -70 85 -145 101
-145 25 0 74 -30 74 -45 0 -18 -30 -27 -106 -30 -35 -2 -67 -6 -71 -8 -7 -4
-79 5 -124 15 -17 4 -69 48 -98 83 -9 10 -31 35 -50 54 -18 20 -40 46 -48 58
-9 13 -21 23 -28 23 -26 0 -54 53 -34 66 5 3 33 7 62 8 54 4 162 50 152 66
-10 16 27 27 96 27 64 0 69 -1 63 -19z m946 -2 c0 -13 -97 -106 -110 -106 -6
0 -19 -7 -28 -17 -28 -27 -23 -106 12 -213 36 -111 43 -123 63 -116 16 6 83
-21 83 -34 0 -11 112 -45 180 -55 14 -2 37 -6 53 -9 106 -22 148 -26 278 -29
l114 -2 50 35 c54 39 92 77 116 121 9 16 21 34 26 41 11 13 33 77 32 91 -1 18
45 86 65 95 26 12 66 -2 66 -23 0 -8 -4 -15 -9 -15 -4 0 -18 -30 -30 -67 -28
-86 -96 -214 -134 -253 -51 -52 -152 -118 -193 -126 -21 -4 -57 -7 -79 -6
-129 7 -228 16 -270 26 -11 2 -49 9 -85 16 -196 37 -300 92 -300 161 0 16 -4
29 -10 29 -5 0 -10 6 -10 14 0 8 -20 53 -44 100 -37 71 -43 91 -37 118 4 18 7
70 7 116 -1 90 6 105 45 99 13 -2 42 1 64 7 49 14 85 15 85 2z m160 -90 c0 -7
-7 -32 -15 -55 -17 -48 -17 -38 1 -103 18 -67 17 -79 -1 -72 -12 5 -15 -2 -15
-29 0 -34 1 -35 73 -61 122 -43 174 -54 277 -60 68 -4 161 32 205 79 63 68 95
106 95 115 0 18 19 10 25 -9 3 -12 -3 -37 -15 -60 -22 -43 -118 -147 -127
-137 -3 3 -20 -2 -37 -11 -33 -18 -36 -19 -106 -28 -61 -8 -57 -8 -133 3 -37
6 -77 9 -87 7 -20 -4 -136 31 -155 46 -6 4 -28 8 -50 8 -73 -1 -193 78 -183
118 3 10 -1 24 -9 31 -34 33 5 88 112 154 47 29 64 34 79 26 10 -6 16 -6 13
-1 -8 13 21 53 39 53 8 0 14 -6 14 -14z m-1556 -81 c9 -14 23 -25 30 -25 7 0
19 -12 25 -27 14 -33 89 -88 114 -84 9 1 20 -5 23 -13 3 -9 10 -14 14 -11 5 3
22 -8 39 -24 36 -35 81 -45 211 -47 52 -1 118 -2 145 -3 28 -2 61 1 74 5 19 6
22 4 15 -7 -4 -8 -9 -20 -10 -27 -5 -27 -36 -63 -52 -60 -9 3 -16 9 -15 14 1
6 -10 11 -25 11 -15 0 -54 3 -88 7 -46 4 -69 2 -94 -10 -31 -16 -35 -16 -77 5
-24 11 -59 21 -78 21 -23 0 -35 5 -35 14 0 13 -29 28 -60 30 -8 1 -16 8 -18
16 -1 8 -24 28 -50 43 -86 50 -132 106 -132 162 0 42 20 47 44 10z m2989 -366
c-6 -23 -67 -73 -83 -67 -5 1 1 15 15 30 14 15 30 39 35 54 8 21 13 24 24 15
8 -7 12 -21 9 -32z m-485 -756 c0 -61 7 -180 18 -318 2 -27 6 -120 9 -205 2
-85 7 -192 10 -237 l6 -82 -28 -7 c-15 -4 -60 -21 -98 -39 -84 -39 -280 -120
-280 -115 0 0 -33 -11 -74 -25 -119 -40 -160 -73 -203 -163 -20 -42 -40 -99
-43 -127 -3 -27 -8 -68 -10 -90 -3 -22 -8 -125 -11 -230 -5 -162 -9 -196 -26
-233 -29 -61 -84 -110 -133 -118 -59 -9 -129 -42 -160 -74 -17 -18 -32 -50
-42 -94 -8 -36 -19 -66 -24 -66 -17 0 -38 47 -57 128 -15 63 -27 92 -49 115
-34 36 -50 90 -68 227 -8 59 -34 211 -40 230 -8 27 -15 74 -21 132 -8 91 -27
168 -49 202 -8 12 -21 44 -30 71 -8 28 -20 57 -24 66 -7 12 1 22 40 45 27 15
49 31 49 35 0 4 33 17 73 29 39 12 93 35 120 51 26 16 49 29 52 29 3 0 32 14
65 30 33 17 88 44 122 61 35 17 79 44 99 60 20 16 41 29 46 29 9 0 38 18 203
125 36 24 81 51 100 60 76 39 253 199 303 273 20 31 41 62 46 68 6 7 22 41 36
75 26 64 66 149 70 149 2 0 3 -30 3 -67z m-754 -2075 c-2 -28 -8 -76 -14 -107
-5 -31 -12 -83 -15 -116 -10 -106 -35 -221 -35 -162 0 9 -9 21 -21 27 -16 9
-27 7 -54 -8 l-33 -20 -5 36 c-2 21 -3 92 -2 159 3 103 1 124 -12 132 -9 4
-14 14 -11 21 4 12 167 87 194 89 8 1 11 -16 8 -51z"/>
<path d="M3275 4742 c-11 -10 -34 -24 -52 -31 -17 -7 -33 -21 -36 -31 -3 -11
-22 -27 -43 -36 -96 -41 -124 -59 -134 -88 -16 -46 -13 -59 12 -53 11 3 37 0
55 -8 19 -8 65 -17 101 -19 37 -3 94 -12 127 -21 33 -9 89 -18 125 -21 36 -3
79 -10 96 -15 17 -5 58 -9 90 -9 33 1 82 -1 110 -4 44 -4 54 -1 77 20 15 14
27 21 27 17 1 -13 70 111 70 124 0 36 -101 113 -168 128 -9 2 -42 13 -72 23
-31 11 -97 23 -150 26 -52 4 -122 9 -155 11 -49 5 -64 2 -80 -13z"/>
<path d="M4545 4649 c-94 -14 -130 -21 -139 -26 -5 -3 -27 -8 -50 -11 -23 -2
-60 -16 -84 -31 -24 -14 -52 -31 -62 -36 -17 -10 -16 -14 12 -70 16 -33 50
-91 76 -130 26 -38 48 -72 49 -74 2 -3 29 4 61 14 31 11 89 20 127 21 39 1
115 6 170 10 123 9 278 10 325 2 64 -12 183 -39 191 -43 15 -10 65 50 65 78
-1 22 -9 31 -44 48 -24 12 -50 32 -58 44 -20 31 -35 85 -23 85 21 0 7 18 -18
25 -16 3 -41 13 -58 20 -34 16 -182 54 -233 61 -19 2 -39 7 -44 10 -15 10
-207 12 -263 3z"/>
<path d="M3896 2922 c-33 -7 -94 -52 -99 -72 -3 -10 2 -28 10 -40 12 -17 21
-20 46 -14 30 7 60 11 98 13 19 1 62 92 49 105 -10 10 -75 15 -104 8z"/>
<path d="M4324 2761 c-18 -11 -38 -28 -45 -38 -22 -29 -104 -93 -121 -93 -7 0
-18 -4 -23 -9 -14 -13 -126 -41 -188 -47 -82 -7 -111 -14 -131 -29 -17 -13
-17 -18 -5 -65 l13 -52 51 7 c27 4 57 7 65 7 42 1 183 48 230 78 8 6 38 22 65
37 28 16 50 35 50 43 0 9 13 17 35 21 46 7 134 58 161 94 l23 28 -23 18 c-32
26 -115 25 -157 0z"/>
<path d="M3220 2690 c-18 -18 -21 -30 -17 -61 6 -45 28 -66 102 -101 28 -12
52 -25 55 -28 21 -23 64 -48 75 -44 11 5 50 -3 117 -22 20 -6 59 33 51 52 -5
14 -37 31 -123 66 -20 9 -44 12 -55 8 -21 -8 -55 5 -55 20 0 10 -81 95 -112
119 -14 10 -20 9 -38 -9z"/>
<path d="M6066 6855 c4 -8 8 -15 10 -15 2 0 4 7 4 15 0 8 -4 15 -10 15 -5 0
-7 -7 -4 -15z"/>
<path d="M2475 4880 c-3 -5 -1 -10 4 -10 6 0 11 5 11 10 0 6 -2 10 -4 10 -3 0
-8 -4 -11 -10z"/>
</g>
</svg>
